<mxfile host="Electron" modified="2024-03-13T21:33:22.308Z" agent="Mozilla/5.0 (Macintosh; Intel Mac OS X 10_15_7) AppleWebKit/537.36 (KHTML, like Gecko) draw.io/24.0.4 Chrome/120.0.6099.109 Electron/28.1.0 Safari/537.36" etag="n5FrGTNFdfVtAp9nfJu8" version="24.0.4" type="device">
  <diagram name="Page-1" id="4_FbPExqZdaGjbZD7lT8">
    <mxGraphModel dx="1268" dy="779" grid="0" gridSize="12" guides="1" tooltips="1" connect="1" arrows="1" fold="1" page="1" pageScale="1" pageWidth="1100" pageHeight="850" math="0" shadow="0">
      <root>
        <mxCell id="0" />
        <mxCell id="1" parent="0" />
        <mxCell id="G8CEVvhKv8LoJJHAYXXA-46" style="edgeStyle=orthogonalEdgeStyle;rounded=1;hachureGap=4;orthogonalLoop=1;jettySize=auto;html=1;entryX=0.5;entryY=0;entryDx=0;entryDy=0;fontFamily=Helvetica;fontSource=https%3A%2F%2Ffonts.googleapis.com%2Fcss%3Ffamily%3DArchitects%2BDaughter;fontSize=11;fontColor=default;labelBackgroundColor=none;exitX=1;exitY=1;exitDx=0;exitDy=0;endArrow=none;endFill=0;curved=1;" parent="1" source="G8CEVvhKv8LoJJHAYXXA-31" target="G8CEVvhKv8LoJJHAYXXA-43" edge="1">
          <mxGeometry relative="1" as="geometry">
            <mxPoint x="763" y="232" as="sourcePoint" />
          </mxGeometry>
        </mxCell>
        <mxCell id="s3bToWSDFPMMqJvne5QE-3" style="edgeStyle=orthogonalEdgeStyle;rounded=1;orthogonalLoop=1;jettySize=auto;html=1;entryX=0.25;entryY=0;entryDx=0;entryDy=0;exitX=0.75;exitY=1;exitDx=0;exitDy=0;curved=1;endArrow=none;endFill=0;flowAnimation=1;strokeWidth=3;" edge="1" parent="1" source="G8CEVvhKv8LoJJHAYXXA-31" target="G8CEVvhKv8LoJJHAYXXA-56">
          <mxGeometry relative="1" as="geometry" />
        </mxCell>
        <mxCell id="s3bToWSDFPMMqJvne5QE-4" style="edgeStyle=orthogonalEdgeStyle;rounded=1;orthogonalLoop=1;jettySize=auto;html=1;entryX=0.5;entryY=0;entryDx=0;entryDy=0;exitX=0.25;exitY=1;exitDx=0;exitDy=0;curved=1;endArrow=none;endFill=0;flowAnimation=1;strokeWidth=3;" edge="1" parent="1" source="G8CEVvhKv8LoJJHAYXXA-31" target="G8CEVvhKv8LoJJHAYXXA-41">
          <mxGeometry relative="1" as="geometry" />
        </mxCell>
        <mxCell id="s3bToWSDFPMMqJvne5QE-5" style="edgeStyle=orthogonalEdgeStyle;rounded=1;orthogonalLoop=1;jettySize=auto;html=1;entryX=0.5;entryY=0;entryDx=0;entryDy=0;curved=1;endArrow=none;endFill=0;" edge="1" parent="1" source="G8CEVvhKv8LoJJHAYXXA-31" target="G8CEVvhKv8LoJJHAYXXA-35">
          <mxGeometry relative="1" as="geometry" />
        </mxCell>
        <mxCell id="G8CEVvhKv8LoJJHAYXXA-31" value="&lt;p style=&quot;margin:0px;margin-top:6px;text-align:center;&quot;&gt;&lt;b&gt;&lt;font style=&quot;font-size: 17px;&quot; face=&quot;Helvetica&quot;&gt;App.js&lt;/font&gt;&lt;/b&gt;&lt;/p&gt;&lt;hr size=&quot;1&quot; style=&quot;border-style:solid;&quot;&gt;&lt;p style=&quot;margin:0px;margin-left:8px;&quot;&gt;&lt;font face=&quot;AT5Svpm2tUw_7EIC9Bj6&quot;&gt;const [users, setUsers] = useState(&quot;&quot;);&lt;/font&gt;&lt;/p&gt;" style="align=left;overflow=fill;html=1;dropTarget=0;whiteSpace=wrap;rounded=1;strokeColor=default;verticalAlign=middle;fontFamily=Helvetica;fontSize=11;fontColor=default;labelBackgroundColor=none;fillColor=default;" parent="1" vertex="1">
          <mxGeometry x="418" y="119" width="232" height="90" as="geometry" />
        </mxCell>
        <mxCell id="G8CEVvhKv8LoJJHAYXXA-32" value="" style="shape=component;jettyWidth=8;jettyHeight=4;rounded=1;strokeColor=default;align=center;verticalAlign=middle;fontFamily=Helvetica;fontSize=11;fontColor=default;labelBackgroundColor=none;fillColor=default;" parent="G8CEVvhKv8LoJJHAYXXA-31" vertex="1">
          <mxGeometry x="1" width="20" height="20" relative="1" as="geometry">
            <mxPoint x="-24" y="4" as="offset" />
          </mxGeometry>
        </mxCell>
        <mxCell id="G8CEVvhKv8LoJJHAYXXA-34" value="" style="edgeStyle=orthogonalEdgeStyle;rounded=1;hachureGap=4;orthogonalLoop=1;jettySize=auto;html=1;fontFamily=Helvetica;flowAnimation=0;curved=1;endArrow=none;endFill=0;strokeWidth=1;" parent="1" source="G8CEVvhKv8LoJJHAYXXA-33" target="G8CEVvhKv8LoJJHAYXXA-31" edge="1">
          <mxGeometry relative="1" as="geometry" />
        </mxCell>
        <mxCell id="G8CEVvhKv8LoJJHAYXXA-33" value="&lt;b&gt;&lt;font face=&quot;Helvetica&quot;&gt;Index.js&lt;/font&gt;&lt;/b&gt;" style="html=1;whiteSpace=wrap;hachureGap=4;fontFamily=Architects Daughter;fontSource=https%3A%2F%2Ffonts.googleapis.com%2Fcss%3Ffamily%3DArchitects%2BDaughter;textShadow=0;rounded=1;" parent="1" vertex="1">
          <mxGeometry x="478" y="17" width="110" height="50" as="geometry" />
        </mxCell>
        <mxCell id="G8CEVvhKv8LoJJHAYXXA-35" value="&lt;p style=&quot;margin:0px;margin-top:6px;text-align:center;&quot;&gt;&lt;b&gt;&lt;font face=&quot;Helvetica&quot;&gt;HomePage.js&lt;/font&gt;&lt;/b&gt;&lt;/p&gt;&lt;hr size=&quot;1&quot; style=&quot;border-style:solid;&quot;&gt;&lt;p style=&quot;margin:0px;margin-left:8px;&quot;&gt;&lt;br&gt;&lt;/p&gt;" style="align=left;overflow=fill;html=1;dropTarget=0;whiteSpace=wrap;rounded=1;strokeColor=default;verticalAlign=middle;fontFamily=Helvetica;fontSize=11;fontColor=default;labelBackgroundColor=none;fillColor=default;" parent="1" vertex="1">
          <mxGeometry x="443" y="388" width="180" height="90" as="geometry" />
        </mxCell>
        <mxCell id="G8CEVvhKv8LoJJHAYXXA-51" value="" style="edgeStyle=orthogonalEdgeStyle;rounded=1;hachureGap=4;orthogonalLoop=1;jettySize=auto;html=1;fontFamily=Helvetica;fontSource=https%3A%2F%2Ffonts.googleapis.com%2Fcss%3Ffamily%3DArchitects%2BDaughter;fontSize=11;fontColor=default;labelBackgroundColor=none;endArrow=openThin;endFill=0;curved=1;startArrow=none;startFill=0;flowAnimation=1;entryX=0.25;entryY=1;entryDx=0;entryDy=0;strokeWidth=3;" parent="1" source="G8CEVvhKv8LoJJHAYXXA-50" target="G8CEVvhKv8LoJJHAYXXA-41" edge="1">
          <mxGeometry relative="1" as="geometry" />
        </mxCell>
        <mxCell id="G8CEVvhKv8LoJJHAYXXA-54" style="edgeStyle=orthogonalEdgeStyle;rounded=1;hachureGap=4;orthogonalLoop=1;jettySize=auto;html=1;fontFamily=Helvetica;fontSource=https%3A%2F%2Ffonts.googleapis.com%2Fcss%3Ffamily%3DArchitects%2BDaughter;fontSize=11;fontColor=default;labelBackgroundColor=none;endArrow=openThin;endFill=0;curved=1;startArrow=none;startFill=0;flowAnimation=1;exitX=0.5;exitY=0;exitDx=0;exitDy=0;strokeWidth=3;" parent="1" source="G8CEVvhKv8LoJJHAYXXA-52" target="G8CEVvhKv8LoJJHAYXXA-41" edge="1">
          <mxGeometry relative="1" as="geometry" />
        </mxCell>
        <mxCell id="G8CEVvhKv8LoJJHAYXXA-55" style="edgeStyle=orthogonalEdgeStyle;rounded=1;hachureGap=4;orthogonalLoop=1;jettySize=auto;html=1;entryX=0.75;entryY=1;entryDx=0;entryDy=0;fontFamily=Helvetica;fontSource=https%3A%2F%2Ffonts.googleapis.com%2Fcss%3Ffamily%3DArchitects%2BDaughter;fontSize=11;fontColor=default;labelBackgroundColor=none;endArrow=openThin;endFill=0;curved=1;startArrow=none;startFill=0;flowAnimation=1;exitX=0.5;exitY=0;exitDx=0;exitDy=0;strokeWidth=3;" parent="1" source="G8CEVvhKv8LoJJHAYXXA-53" target="G8CEVvhKv8LoJJHAYXXA-41" edge="1">
          <mxGeometry relative="1" as="geometry" />
        </mxCell>
        <mxCell id="G8CEVvhKv8LoJJHAYXXA-41" value="&lt;p style=&quot;margin:0px;margin-top:6px;text-align:center;&quot;&gt;&lt;b&gt;LoginPage.js&lt;/b&gt;&lt;/p&gt;&lt;hr size=&quot;1&quot; style=&quot;border-style:solid;&quot;&gt;&lt;p style=&quot;margin:0px;margin-left:8px;&quot;&gt;&lt;font face=&quot;AT5Svpm2tUw_7EIC9Bj6&quot;&gt;- setUsers&lt;/font&gt;&lt;/p&gt;" style="align=left;overflow=fill;html=1;dropTarget=0;whiteSpace=wrap;rounded=1;strokeColor=default;verticalAlign=middle;fontFamily=Helvetica;fontSize=11;fontColor=default;labelBackgroundColor=none;fillColor=default;" parent="1" vertex="1">
          <mxGeometry x="221.5" y="388" width="180" height="90" as="geometry" />
        </mxCell>
        <mxCell id="G8CEVvhKv8LoJJHAYXXA-43" value="&lt;p style=&quot;margin:0px;margin-top:6px;text-align:center;&quot;&gt;&lt;b&gt;About.js&lt;/b&gt;&lt;/p&gt;&lt;hr size=&quot;1&quot; style=&quot;border-style:solid;&quot;&gt;&lt;p style=&quot;margin:0px;margin-left:8px;&quot;&gt;&lt;br&gt;&lt;/p&gt;" style="align=left;overflow=fill;html=1;dropTarget=0;whiteSpace=wrap;rounded=1;strokeColor=default;verticalAlign=middle;fontFamily=Helvetica;fontSize=11;fontColor=default;labelBackgroundColor=none;fillColor=default;" parent="1" vertex="1">
          <mxGeometry x="888" y="391" width="180" height="87" as="geometry" />
        </mxCell>
        <mxCell id="G8CEVvhKv8LoJJHAYXXA-50" value="Button" style="whiteSpace=wrap;html=1;fontSize=11;align=center;rounded=1;labelBackgroundColor=none;" parent="1" vertex="1">
          <mxGeometry x="198" y="528" width="65" height="32" as="geometry" />
        </mxCell>
        <mxCell id="G8CEVvhKv8LoJJHAYXXA-52" value="Label" style="whiteSpace=wrap;html=1;fontSize=11;align=center;rounded=1;labelBackgroundColor=none;" parent="1" vertex="1">
          <mxGeometry x="279" y="528" width="65" height="32" as="geometry" />
        </mxCell>
        <mxCell id="G8CEVvhKv8LoJJHAYXXA-53" value="Input" style="whiteSpace=wrap;html=1;fontSize=11;align=center;rounded=1;labelBackgroundColor=none;" parent="1" vertex="1">
          <mxGeometry x="358" y="528" width="65" height="32" as="geometry" />
        </mxCell>
        <mxCell id="G8CEVvhKv8LoJJHAYXXA-56" value="&lt;p style=&quot;margin:0px;margin-top:6px;text-align:center;&quot;&gt;&lt;b&gt;&lt;font face=&quot;Helvetica&quot;&gt;UserInfo.js&lt;/font&gt;&lt;/b&gt;&lt;/p&gt;&lt;hr size=&quot;1&quot; style=&quot;border-style:solid;&quot;&gt;&lt;p style=&quot;margin:0px;margin-left:8px;&quot;&gt;&lt;font face=&quot;dm1YHs8Nv8CcR_O84Hlj&quot;&gt;- users&lt;/font&gt;&lt;/p&gt;" style="align=left;overflow=fill;html=1;dropTarget=0;whiteSpace=wrap;rounded=1;strokeColor=default;verticalAlign=middle;fontFamily=Helvetica;fontSize=11;fontColor=default;labelBackgroundColor=none;fillColor=default;" parent="1" vertex="1">
          <mxGeometry x="666" y="388" width="180" height="90" as="geometry" />
        </mxCell>
        <mxCell id="s3bToWSDFPMMqJvne5QE-7" style="edgeStyle=orthogonalEdgeStyle;rounded=1;orthogonalLoop=1;jettySize=auto;html=1;entryX=0.5;entryY=1;entryDx=0;entryDy=0;curved=1;flowAnimation=1;strokeWidth=3;endArrow=open;endFill=0;" edge="1" parent="1" source="G8CEVvhKv8LoJJHAYXXA-59" target="G8CEVvhKv8LoJJHAYXXA-56">
          <mxGeometry relative="1" as="geometry" />
        </mxCell>
        <mxCell id="G8CEVvhKv8LoJJHAYXXA-59" value="Card" style="whiteSpace=wrap;html=1;fontSize=11;align=center;rounded=1;labelBackgroundColor=none;" parent="1" vertex="1">
          <mxGeometry x="676" y="515" width="65" height="32" as="geometry" />
        </mxCell>
        <mxCell id="s3bToWSDFPMMqJvne5QE-8" style="edgeStyle=orthogonalEdgeStyle;rounded=1;orthogonalLoop=1;jettySize=auto;html=1;entryX=0.75;entryY=1;entryDx=0;entryDy=0;curved=1;flowAnimation=1;strokeWidth=3;endArrow=open;endFill=0;" edge="1" parent="1" source="G8CEVvhKv8LoJJHAYXXA-61" target="G8CEVvhKv8LoJJHAYXXA-56">
          <mxGeometry relative="1" as="geometry" />
        </mxCell>
        <mxCell id="G8CEVvhKv8LoJJHAYXXA-61" value="Avatar" style="whiteSpace=wrap;html=1;fontSize=11;align=center;rounded=1;labelBackgroundColor=none;" parent="1" vertex="1">
          <mxGeometry x="801" y="528" width="65" height="32" as="geometry" />
        </mxCell>
        <mxCell id="s3bToWSDFPMMqJvne5QE-6" style="edgeStyle=orthogonalEdgeStyle;rounded=1;orthogonalLoop=1;jettySize=auto;html=1;entryX=0.5;entryY=1;entryDx=0;entryDy=0;curved=1;flowAnimation=1;strokeWidth=3;endArrow=open;endFill=0;" edge="1" parent="1" source="G8CEVvhKv8LoJJHAYXXA-63" target="G8CEVvhKv8LoJJHAYXXA-59">
          <mxGeometry relative="1" as="geometry" />
        </mxCell>
        <mxCell id="G8CEVvhKv8LoJJHAYXXA-63" value="Button" style="whiteSpace=wrap;html=1;fontSize=11;align=center;rounded=1;labelBackgroundColor=none;" parent="1" vertex="1">
          <mxGeometry x="708" y="592" width="65" height="32" as="geometry" />
        </mxCell>
        <mxCell id="4fF6XaQS3U98OSgZjrtY-1" value="State" style="swimlane;fontStyle=0;childLayout=stackLayout;horizontal=1;startSize=30;horizontalStack=0;resizeParent=1;resizeParentMax=0;resizeLast=0;collapsible=1;marginBottom=0;whiteSpace=wrap;html=1;hachureGap=4;fontFamily=Helvetica;rounded=1;" parent="1" vertex="1">
          <mxGeometry x="45" y="59" width="214" height="60" as="geometry">
            <mxRectangle x="51" y="17" width="65" height="30" as="alternateBounds" />
          </mxGeometry>
        </mxCell>
        <mxCell id="4fF6XaQS3U98OSgZjrtY-2" value="users, setUsers - App.js" style="text;strokeColor=none;fillColor=none;align=left;verticalAlign=middle;spacingLeft=4;spacingRight=4;overflow=hidden;points=[[0,0.5],[1,0.5]];portConstraint=eastwest;rotatable=0;whiteSpace=wrap;html=1;fontFamily=Helvetica;rounded=1;" parent="4fF6XaQS3U98OSgZjrtY-1" vertex="1">
          <mxGeometry y="30" width="214" height="30" as="geometry" />
        </mxCell>
        <mxCell id="4fF6XaQS3U98OSgZjrtY-5" value="Up here is our guide to where we are holding our state for different things" style="text;html=1;align=center;verticalAlign=middle;whiteSpace=wrap;rounded=1;fontFamily=Helvetica;" parent="1" vertex="1">
          <mxGeometry x="26" y="12" width="257" height="30" as="geometry" />
        </mxCell>
        <mxCell id="s3bToWSDFPMMqJvne5QE-1" value="Global State for&lt;div&gt;users, setUsers&lt;/div&gt;" style="html=1;shadow=0;dashed=0;align=center;verticalAlign=middle;shape=mxgraph.arrows2.arrow;dy=0.59;dx=25.59;notch=15;flipH=1;sketch=1;curveFitting=1;jiggle=2;rounded=1;" vertex="1" parent="1">
          <mxGeometry x="665" y="116" width="292" height="96" as="geometry" />
        </mxCell>
      </root>
    </mxGraphModel>
  </diagram>
</mxfile>
